<?xml version="1.0" encoding="UTF-8"?>
<svg xmlns="http://www.w3.org/2000/svg" xmlns:xlink="http://www.w3.org/1999/xlink" width="48px" height="48px" viewBox="0 0 48 48" version="1.1">
<g id="surface1">
<path style="fill:none;stroke-width:1.5;stroke-linecap:round;stroke-linejoin:round;stroke:rgb(0%,0%,0%);stroke-opacity:1;stroke-miterlimit:4;" d="M 20 12 L 20 5.748047 C 18.412109 5.867188 17.03125 4.673828 16.912109 3.087891 C 16.794922 1.5 17.988281 0.117188 19.574219 0 L 16.427734 -3.148438 C 17.296875 -4.017578 18.705078 -4.017578 19.574219 -3.148438 C 20.443359 -2.279297 20.443359 -0.869141 19.574219 0 L 4.599609 0 C 4.785156 -0.107422 5.013672 -0.107422 5.199219 0 L 5.199219 18.800781 C 0.0078125 18.800781 -4.199219 14.591797 -4.199219 9.400391 C -4.199219 4.208984 0.0078125 0 5.199219 0 L 11 0 M 8 10 L 16 10 M 8 6 L 12 6 M 8 14 L 11 14 M 17.953125 16.939453 L 18.953125 15.939453 C 23.355469 12.142578 23.845703 5.494141 20.046875 1.09375 C 16.248047 -3.308594 9.601562 -3.798828 5.199219 0 L 4.199219 1 M 2.613281 -0.585938 L -0.376953 2.404297 C -1.041016 2.251953 -1.455078 1.589844 -1.302734 0.925781 C -1.150391 0.261719 -0.488281 -0.152344 0.175781 0 L -0.0683594 1.556641 L 1.488281 1.314453 C 1.310547 1.726562 0.880859 1.970703 0.435547 1.910156 C -0.00976562 1.849609 -0.359375 1.498047 -0.419922 1.052734 C -0.480469 0.607422 -0.236328 0.177734 0.175781 0 L 3.166016 -2.992188 M 1.580078 -4.578125 L 3.167969 -2.992188 " transform="matrix(2,0,0,2,0,0)"/>
<path style="fill:none;stroke-width:1.5;stroke-linecap:round;stroke-linejoin:round;stroke:rgb(0%,0%,0%);stroke-opacity:1;stroke-miterlimit:4;" d="M 16 2 L 16 5.400391 C 14.509766 9.818359 9.71875 12.191406 5.300781 10.699219 C 0.880859 9.208984 -1.490234 4.417969 0 0 L 20 0 " transform="matrix(2,0,0,2,0,0)"/>
</g>
</svg>
